<svg width="16" height="14" viewBox="0 0 16 14" fill="none" xmlns="http://www.w3.org/2000/svg">
<path d="M9.77402 5.6696L9.77964 5.66579L9.75982 5.59624C9.71625 5.4433 9.564 5.32759 9.3989 5.34765C9.36766 5.34933 9.2924 5.35924 9.19011 5.38422C9.07397 5.41259 8.91755 5.46167 8.74075 5.54487C8.40542 5.70267 7.99708 5.98314 7.6526 6.47622C7.38761 6.30782 6.97325 6.15784 6.42653 6.2939C6.29055 6.31876 6.17483 6.43283 6.17119 6.59216C6.08092 7.23011 6.30839 7.84738 6.61299 8.35899C6.91327 8.86335 7.29487 9.27581 7.5466 9.52092C7.56249 9.55814 7.58043 9.59394 7.59543 9.62388L7.59569 9.62439C7.61097 9.65489 7.62171 9.6766 7.62821 9.69219C7.6364 9.86302 7.64822 10.0075 7.66007 10.1146C7.66617 10.1697 7.67236 10.2156 7.67821 10.2505C7.68112 10.2679 7.68411 10.2835 7.68715 10.2966C7.68865 10.3031 7.69087 10.3121 7.69412 10.3217C7.72454 10.4852 7.8832 10.5873 8.03111 10.5873H8.07923V10.5881L8.09181 10.5865C8.27317 10.5635 8.41337 10.3849 8.36923 10.1958L8.36853 10.1913L8.36487 10.1666C8.36174 10.1447 8.35736 10.112 8.35247 10.0699C8.3436 9.9937 8.33307 9.88657 8.32522 9.75584C8.56205 9.49717 9.20005 8.75679 9.52866 8.10027L9.52867 8.10028L9.52938 8.0988C9.81883 7.49601 9.8759 6.88277 9.8616 6.41677C9.85445 6.18341 9.82936 5.98591 9.80607 5.84363C9.79441 5.77245 9.78321 5.71513 9.77498 5.67433L9.77402 5.6696ZM6.9818 7.07855C6.92085 7.12214 6.88058 7.17844 6.85872 7.23966C6.83687 7.13848 6.8234 7.03683 6.82009 6.9354C6.98554 6.93501 7.1176 6.97419 7.21917 7.02463C7.14071 7.01588 7.05964 7.03343 6.99031 7.0731L6.99005 7.07265L6.9818 7.07855ZM8.89404 7.78795C8.75729 8.0572 8.55609 8.35207 8.35423 8.6132C8.44352 8.0776 8.62863 7.48304 9.00878 6.96328L9.00879 6.96329L9.00941 6.96241C9.11803 6.81052 9.09966 6.60217 8.93811 6.48665C8.82302 6.40436 8.67553 6.39495 8.56056 6.46549C8.76994 6.28693 8.97675 6.18318 9.13929 6.12276C9.2005 6.494 9.20811 7.15929 8.90236 7.7713L8.89404 7.78795ZM8.00875 7.17268C8.14758 6.90645 8.30801 6.7028 8.4705 6.54698C8.46797 6.55025 8.46549 6.55358 8.46304 6.55697C8.17359 6.94341 7.97559 7.36361 7.84137 7.77622C7.86205 7.57284 7.91467 7.36895 8.00875 7.17268Z" fill="#213F7D" stroke="#213F7D" stroke-width="0.2"/>
<path d="M4.46006 10.84C4.46006 11.0233 4.61671 11.18 4.80006 11.18C4.98341 11.18 5.14006 11.0233 5.14006 10.84V4.75996C5.14006 4.57661 4.98341 4.41996 4.80006 4.41996C4.61671 4.41996 4.46006 4.57661 4.46006 4.75996V10.84Z" fill="#213F7D" stroke="#213F7D" stroke-width="0.2"/>
<path d="M2.85996 10.84C2.85996 11.0233 3.01661 11.18 3.19996 11.18C3.38331 11.18 3.53996 11.0233 3.53996 10.84V4.75996C3.53996 4.57661 3.38331 4.41996 3.19996 4.41996C3.01661 4.41996 2.85996 4.57661 2.85996 4.75996V10.84Z" fill="#213F7D" stroke="#213F7D" stroke-width="0.2"/>
<path d="M10.86 10.84C10.86 11.0233 11.0166 11.18 11.2 11.18C11.3833 11.18 11.54 11.0233 11.54 10.84V4.75996C11.54 4.57661 11.3833 4.41996 11.2 4.41996C11.0166 4.41996 10.86 4.57661 10.86 4.75996V10.84Z" fill="#213F7D" stroke="#213F7D" stroke-width="0.2"/>
<path d="M12.4601 10.84C12.4601 11.0233 12.6167 11.18 12.8001 11.18C12.9834 11.18 13.1401 11.0233 13.1401 10.84V4.75996C13.1401 4.57661 12.9834 4.41996 12.8001 4.41996C12.6167 4.41996 12.4601 4.57661 12.4601 4.75996V10.84Z" fill="#213F7D" stroke="#213F7D" stroke-width="0.2"/>
<path d="M13.5818 4.29997H13.36H2.64004C2.48648 4.29997 2.34567 4.19237 2.31862 4.04569C2.27553 3.88563 2.35048 3.75011 2.4727 3.66863L2.47684 3.66587L2.47691 3.66598L7.83662 0.46615C7.83666 0.466125 7.83671 0.466099 7.83675 0.466073L7.83691 0.465979L7.88817 0.551841C7.96817 0.503716 8.06442 0.503716 8.12817 0.551841L13.5818 4.29997ZM13.5818 4.29997L13.5366 4.24878C13.6335 4.18881 13.7013 4.08325 13.7149 3.97131L13.7156 3.9714V3.95926C13.7156 3.82907 13.6337 3.69696 13.517 3.64602L8.18352 0.468415L13.5818 4.29997ZM12.119 3.61997H3.86586L7.99994 1.14837L12.119 3.61997Z" fill="#213F7D" stroke="#213F7D" stroke-width="0.2"/>
<path d="M2.64015 11.98H13.3601C13.5435 11.98 13.7001 11.8233 13.7001 11.64C13.7001 11.4566 13.5435 11.3 13.3601 11.3H2.64015C2.45679 11.3 2.30015 11.4566 2.30015 11.64C2.30015 11.8233 2.45679 11.98 2.64015 11.98Z" fill="#213F7D" stroke="#213F7D" stroke-width="0.2"/>
<path d="M1.8401 12.78H14.1601C14.3435 12.78 14.5001 12.6233 14.5001 12.44C14.5001 12.2566 14.3435 12.1 14.1601 12.1H1.8401C1.65674 12.1 1.5001 12.2566 1.5001 12.44C1.5001 12.6233 1.65674 12.78 1.8401 12.78Z" fill="#213F7D" stroke="#213F7D" stroke-width="0.2"/>
<path d="M1.04005 13.5799H14.96C15.1434 13.5799 15.3 13.4233 15.3 13.2399C15.3 13.0566 15.1434 12.8999 14.96 12.8999H1.04005C0.856696 12.8999 0.700049 13.0566 0.700049 13.2399C0.700049 13.4233 0.856696 13.5799 1.04005 13.5799Z" fill="#213F7D" stroke="#213F7D" stroke-width="0.2"/>
</svg>
