<svg width="16" height="16" viewBox="0 0 16 16" fill="none" xmlns="http://www.w3.org/2000/svg">
<g clip-path="url(#clip0_60523_429)">
<path opacity="0.4" d="M4.76277 11.8763C4.27067 11.7741 3.79408 11.608 3.34517 11.382C2.56288 11.4979 1.76385 11.405 1.02903 11.1127C0.608867 10.9443 0.239485 11.4464 0.52586 11.7969C0.959982 12.3261 1.47951 12.7791 2.06296 13.137C3.57357 14.0703 5.44696 14.2436 7.10003 13.6828C7.5433 13.0917 7.83326 12.4 7.94402 11.6695C6.92092 12.0204 5.82268 12.0918 4.76277 11.8763ZM4.33052 7.94413C3.97953 6.92102 3.90814 5.82273 4.12373 4.7628C4.22582 4.27073 4.39195 3.79416 4.61787 3.34526C4.50203 2.56294 4.59493 1.76391 4.88715 1.02903C5.05561 0.608991 4.55342 0.239423 4.20295 0.525739C3.67372 0.95983 3.22082 1.47939 2.863 2.06291C1.92966 3.57359 1.75632 5.44694 2.31711 7.10001C2.90826 7.5433 3.59998 7.8333 4.33052 7.94413ZM11.6693 8.05582C12.0203 9.07893 12.0917 10.1772 11.8761 11.2372C11.774 11.7292 11.6079 12.2058 11.382 12.6547C11.4978 13.437 11.4049 14.236 11.1127 14.9709C10.9442 15.391 11.4464 15.7605 11.7969 15.4742C12.3261 15.0401 12.779 14.5205 13.1368 13.937C14.0702 12.4264 14.2435 10.553 13.6827 8.89994C13.0916 8.45665 12.3999 8.16665 11.6693 8.05582ZM15.474 4.20304C15.0399 3.67379 14.5204 3.22083 13.9369 2.86289C12.4263 1.92961 10.5529 1.75633 8.89982 2.31712C8.45653 2.90824 8.16657 3.59996 8.05583 4.33048C9.07892 3.97955 10.1772 3.90816 11.2371 4.1237C11.7292 4.22581 12.2058 4.39196 12.6547 4.6179C13.437 4.50195 14.236 4.59485 14.9708 4.88719C15.391 5.05564 15.7604 4.55351 15.474 4.20304Z" fill="#213F7D"/>
<path d="M15.8306 8.56571C15.3057 6.34366 13.4763 4.57078 11.2373 4.12369C10.1773 3.90816 9.0791 3.97955 8.056 4.33048C8.16973 3.57377 8.47491 2.85866 8.94257 2.25299C9.41024 1.64732 10.0249 1.17118 10.7282 0.869728C11.1444 0.69175 11.0506 0.075416 10.6003 0.030068C9.91909 -0.0371637 9.23144 0.00993299 8.56577 0.169412C6.34386 0.694313 4.57092 2.52378 4.12391 4.76279C3.90832 5.82273 3.9797 6.92101 4.33069 7.94412C3.57398 7.83037 2.85887 7.52517 2.25319 7.05749C1.64752 6.58982 1.17137 5.97516 0.869905 5.27182C0.691928 4.85575 0.0755987 4.94944 0.0301902 5.39976C-0.0370503 6.08095 0.0100669 6.76859 0.169593 7.43424C0.694492 9.65628 2.52395 11.4292 4.76294 11.8762C5.82286 12.0918 6.9211 12.0204 7.94419 11.6695C7.83046 12.4262 7.52529 13.1413 7.05762 13.747C6.58996 14.3526 5.9753 14.8288 5.27197 15.1302C4.85584 15.3082 4.94959 15.9245 5.3999 15.9699C6.0811 16.0371 6.76875 15.99 7.43443 15.8305C9.65634 15.3056 11.4293 13.4762 11.8763 11.2372C12.0919 10.1772 12.0205 9.07893 11.6695 8.05582C12.4262 8.16958 13.1413 8.47477 13.747 8.94245C14.3527 9.41013 14.8288 10.0248 15.1303 10.7281C15.3083 11.1442 15.9246 11.0505 15.97 10.6002C16.0372 9.919 15.9901 9.23136 15.8306 8.56571ZM8.0001 9.49997C7.70343 9.49997 7.41342 9.412 7.16674 9.24718C6.92006 9.08236 6.7278 8.84809 6.61427 8.574C6.50074 8.29992 6.47103 7.99832 6.52891 7.70734C6.58678 7.41637 6.72964 7.1491 6.93942 6.93932C7.1492 6.72954 7.41648 6.58667 7.70745 6.5288C7.99842 6.47092 8.30002 6.50062 8.57411 6.61415C8.8482 6.72768 9.08247 6.91994 9.24729 7.16662C9.41211 7.41329 9.50009 7.7033 9.50009 7.99997C9.50008 8.39779 9.34204 8.77932 9.06074 9.06062C8.77944 9.34192 8.39792 9.49996 8.0001 9.49997Z" fill="#213F7D"/>
</g>
<defs>
<clipPath id="clip0_60523_429">
<rect width="16" height="16" fill="white"/>
</clipPath>
</defs>
</svg>
