<svg width="16" height="22" viewBox="0 0 16 22" fill="none" xmlns="http://www.w3.org/2000/svg">
<g clip-path="url(#clip0_60523_137)">
<path opacity="0.4" d="M14 2.66663H10.6667C11.3739 2.66663 12.0522 2.94758 12.5523 3.44767C13.0524 3.94777 13.3333 4.62605 13.3333 5.33329H2.66667C2.66667 4.62605 2.94762 3.94777 3.44772 3.44767C3.94781 2.94758 4.62609 2.66663 5.33333 2.66663H2C1.46957 2.66663 0.960859 2.87734 0.585786 3.25241C0.210714 3.62749 0 4.13619 0 4.66663L0 19.3333C0 19.8637 0.210714 20.3724 0.585786 20.7475C0.960859 21.1226 1.46957 21.3333 2 21.3333H14C14.5304 21.3333 15.0391 21.1226 15.4142 20.7475C15.7893 20.3724 16 19.8637 16 19.3333V4.66663C16 4.13619 15.7893 3.62749 15.4142 3.25241C15.0391 2.87734 14.5304 2.66663 14 2.66663ZM4 17.6666C3.80222 17.6666 3.60888 17.608 3.44443 17.4981C3.27998 17.3882 3.15181 17.232 3.07612 17.0493C3.00043 16.8666 2.98063 16.6655 3.01921 16.4715C3.0578 16.2776 3.15304 16.0994 3.29289 15.9595C3.43275 15.8197 3.61093 15.7244 3.80491 15.6858C3.99889 15.6473 4.19996 15.6671 4.38268 15.7427C4.56541 15.8184 4.72159 15.9466 4.83147 16.1111C4.94135 16.2755 5 16.4688 5 16.6666C5.00033 16.798 4.97469 16.9282 4.92455 17.0497C4.87441 17.1712 4.80077 17.2815 4.70784 17.3745C4.61492 17.4674 4.50455 17.541 4.38307 17.5912C4.2616 17.6413 4.13141 17.667 4 17.6666ZM4 13.6666C3.80222 13.6666 3.60888 13.608 3.44443 13.4981C3.27998 13.3882 3.15181 13.232 3.07612 13.0493C3.00043 12.8666 2.98063 12.6655 3.01921 12.4715C3.0578 12.2776 3.15304 12.0994 3.29289 11.9595C3.43275 11.8197 3.61093 11.7244 3.80491 11.6858C3.99889 11.6473 4.19996 11.6671 4.38268 11.7427C4.56541 11.8184 4.72159 11.9466 4.83147 12.1111C4.94135 12.2755 5 12.4688 5 12.6666C5.00033 12.798 4.97469 12.9282 4.92455 13.0497C4.87441 13.1712 4.80077 13.2815 4.70784 13.3745C4.61492 13.4674 4.50455 13.541 4.38307 13.5912C4.2616 13.6413 4.13141 13.667 4 13.6666ZM4 9.66663C3.80222 9.66663 3.60888 9.60798 3.44443 9.4981C3.27998 9.38821 3.15181 9.23204 3.07612 9.04931C3.00043 8.86658 2.98063 8.66552 3.01921 8.47154C3.0578 8.27755 3.15304 8.09937 3.29289 7.95952C3.43275 7.81967 3.61093 7.72443 3.80491 7.68584C3.99889 7.64726 4.19996 7.66706 4.38268 7.74275C4.56541 7.81843 4.72159 7.94661 4.83147 8.11106C4.94135 8.27551 5 8.46884 5 8.66663C5.00033 8.79804 4.97469 8.92823 4.92455 9.0497C4.87441 9.17117 4.80077 9.28154 4.70784 9.37447C4.61492 9.46739 4.50455 9.54104 4.38307 9.59118C4.2616 9.64131 4.13141 9.66696 4 9.66663ZM13.3333 17C13.3333 17.0884 13.2982 17.1732 13.2357 17.2357C13.1732 17.2982 13.0884 17.3333 13 17.3333H7C6.91159 17.3333 6.82681 17.2982 6.7643 17.2357C6.70179 17.1732 6.66667 17.0884 6.66667 17V16.3333C6.66667 16.2449 6.70179 16.1601 6.7643 16.0976C6.82681 16.0351 6.91159 16 7 16H13C13.0884 16 13.1732 16.0351 13.2357 16.0976C13.2982 16.1601 13.3333 16.2449 13.3333 16.3333V17ZM13.3333 13C13.3333 13.0884 13.2982 13.1732 13.2357 13.2357C13.1732 13.2982 13.0884 13.3333 13 13.3333H7C6.91159 13.3333 6.82681 13.2982 6.7643 13.2357C6.70179 13.1732 6.66667 13.0884 6.66667 13V12.3333C6.66667 12.2449 6.70179 12.1601 6.7643 12.0976C6.82681 12.0351 6.91159 12 7 12H13C13.0884 12 13.1732 12.0351 13.2357 12.0976C13.2982 12.1601 13.3333 12.2449 13.3333 12.3333V13ZM13.3333 8.99996C13.3333 9.08837 13.2982 9.17315 13.2357 9.23566C13.1732 9.29817 13.0884 9.33329 13 9.33329H7C6.91159 9.33329 6.82681 9.29817 6.7643 9.23566C6.70179 9.17315 6.66667 9.08837 6.66667 8.99996V8.33329C6.66667 8.24489 6.70179 8.1601 6.7643 8.09759C6.82681 8.03508 6.91159 7.99996 7 7.99996H13C13.0884 7.99996 13.1732 8.03508 13.2357 8.09759C13.2982 8.1601 13.3333 8.24489 13.3333 8.33329V8.99996Z" fill="#213F7D"/>
<path d="M3.99984 15.6667C3.80206 15.6667 3.60872 15.7253 3.44427 15.8352C3.27982 15.9451 3.15165 16.1013 3.07596 16.284C3.00027 16.4667 2.98047 16.6678 3.01905 16.8618C3.05764 17.0557 3.15288 17.2339 3.29273 17.3738C3.43258 17.5136 3.61077 17.6089 3.80475 17.6475C3.99873 17.686 4.19979 17.6662 4.38252 17.5905C4.56525 17.5149 4.72143 17.3867 4.83131 17.2222C4.94119 17.0578 4.99984 16.8644 4.99984 16.6667C5.00017 16.5353 4.97453 16.4051 4.92439 16.2836C4.87425 16.1621 4.8006 16.0517 4.70768 15.9588C4.61476 15.8659 4.50438 15.7923 4.38291 15.7421C4.26144 15.692 4.13125 15.6663 3.99984 15.6667ZM3.99984 11.6667C3.80206 11.6667 3.60872 11.7253 3.44427 11.8352C3.27982 11.9451 3.15165 12.1013 3.07596 12.284C3.00027 12.4667 2.98047 12.6678 3.01905 12.8618C3.05764 13.0557 3.15288 13.2339 3.29273 13.3738C3.43258 13.5136 3.61077 13.6089 3.80475 13.6475C3.99873 13.686 4.19979 13.6662 4.38252 13.5905C4.56525 13.5149 4.72143 13.3867 4.83131 13.2222C4.94119 13.0578 4.99984 12.8644 4.99984 12.6667C5.00017 12.5353 4.97453 12.4051 4.92439 12.2836C4.87425 12.1621 4.8006 12.0517 4.70768 11.9588C4.61476 11.8659 4.50438 11.7923 4.38291 11.7421C4.26144 11.692 4.13125 11.6663 3.99984 11.6667ZM3.99984 7.66667C3.80206 7.66667 3.60872 7.72532 3.44427 7.8352C3.27982 7.94508 3.15165 8.10126 3.07596 8.28398C3.00027 8.46671 2.98047 8.66778 3.01905 8.86176C3.05764 9.05574 3.15288 9.23392 3.29273 9.37377C3.43258 9.51363 3.61077 9.60887 3.80475 9.64745C3.99873 9.68604 4.19979 9.66623 4.38252 9.59055C4.56525 9.51486 4.72143 9.38669 4.83131 9.22224C4.94119 9.05779 4.99984 8.86445 4.99984 8.66667C5.00017 8.53525 4.97453 8.40507 4.92439 8.28359C4.87425 8.16212 4.8006 8.05175 4.70768 7.95883C4.61476 7.8659 4.50438 7.79225 4.38291 7.74212C4.26144 7.69198 4.13125 7.66634 3.99984 7.66667ZM10.6665 2.66667C10.6665 1.95942 10.3856 1.28115 9.88546 0.781049C9.38536 0.280952 8.70708 0 7.99984 0C7.29259 0 6.61432 0.280952 6.11422 0.781049C5.61412 1.28115 5.33317 1.95942 5.33317 2.66667C4.62593 2.66667 3.94765 2.94762 3.44755 3.44772C2.94746 3.94781 2.6665 4.62609 2.6665 5.33333H13.3332C13.3332 4.62609 13.0522 3.94781 12.5521 3.44772C12.052 2.94762 11.3737 2.66667 10.6665 2.66667ZM7.99984 3.66667C7.80206 3.66667 7.60872 3.60802 7.44427 3.49814C7.27982 3.38825 7.15165 3.23208 7.07596 3.04935C7.00027 2.86662 6.98047 2.66556 7.01905 2.47158C7.05764 2.2776 7.15288 2.09941 7.29273 1.95956C7.43258 1.81971 7.61077 1.72447 7.80475 1.68588C7.99873 1.6473 8.19979 1.6671 8.38252 1.74279C8.56525 1.81847 8.72143 1.94665 8.83131 2.1111C8.94119 2.27555 8.99984 2.46889 8.99984 2.66667C9.00017 2.79808 8.97453 2.92827 8.92439 3.04974C8.87425 3.17121 8.8006 3.28158 8.70768 3.37451C8.61475 3.46743 8.50438 3.54108 8.38291 3.59122C8.26144 3.64136 8.13125 3.667 7.99984 3.66667Z" fill="#213F7D"/>
</g>
<defs>
<clipPath id="clip0_60523_137">
<rect width="16" height="21.3333" fill="white"/>
</clipPath>
</defs>
</svg>
