<svg width="73" height="42" viewBox="0 0 73 42" fill="none" xmlns="http://www.w3.org/2000/svg">
<path d="M8.806 9.458C8.806 10.6713 8.484 11.5907 7.84 12.216C7.196 12.832 6.258 13.14 5.026 13.14C3.794 13.14 2.856 12.832 2.212 12.216C1.568 11.5907 1.246 10.6713 1.246 9.458V3.76H2.758V9.276C2.758 10.1533 2.94 10.802 3.304 11.222C3.67733 11.6327 4.25133 11.838 5.026 11.838C5.80067 11.838 6.37 11.6327 6.734 11.222C7.10733 10.802 7.294 10.1533 7.294 9.276V3.76H8.806V9.458ZM13.6491 13.14C12.9398 13.14 12.3098 13.0187 11.7591 12.776C11.2178 12.5333 10.8071 12.1647 10.5271 11.67L11.5351 10.802C11.7125 11.2033 11.9878 11.4973 12.3611 11.684C12.7345 11.8707 13.1825 11.964 13.7051 11.964C14.1811 11.964 14.5498 11.8893 14.8111 11.74C15.0725 11.5813 15.2031 11.376 15.2031 11.124C15.2031 10.9 15.0818 10.7227 14.8391 10.592C14.5965 10.452 14.1765 10.3213 13.5791 10.2C12.5431 10.004 11.8151 9.74267 11.3951 9.416C10.9751 9.08933 10.7651 8.62733 10.7651 8.03C10.7651 7.64733 10.8818 7.29267 11.1151 6.966C11.3485 6.63 11.6845 6.364 12.1231 6.168C12.5711 5.96267 13.0985 5.86 13.7051 5.86C14.4798 5.86 15.1005 5.99067 15.5671 6.252C16.0338 6.504 16.3931 6.90067 16.6451 7.442L15.5811 8.226C15.4131 7.81533 15.1751 7.51667 14.8671 7.33C14.5685 7.134 14.1858 7.036 13.7191 7.036C13.2991 7.036 12.9491 7.12467 12.6691 7.302C12.3985 7.47 12.2631 7.666 12.2631 7.89C12.2631 8.142 12.3845 8.34267 12.6271 8.492C12.8791 8.64133 13.3318 8.77667 13.9851 8.898C14.9745 9.07533 15.6745 9.32733 16.0851 9.654C16.4958 9.98067 16.7011 10.438 16.7011 11.026C16.7011 11.6513 16.4305 12.16 15.8891 12.552C15.3478 12.944 14.6011 13.14 13.6491 13.14ZM24.7696 9.29C24.7696 9.56067 24.7509 9.81733 24.7136 10.06H19.5896C19.6736 10.676 19.8929 11.1473 20.2476 11.474C20.6023 11.7913 21.0596 11.95 21.6196 11.95C22.0769 11.95 22.4549 11.8707 22.7536 11.712C23.0616 11.544 23.2716 11.306 23.3836 10.998L24.6296 11.516C24.1069 12.5987 23.1036 13.14 21.6196 13.14C20.5183 13.14 19.6549 12.818 19.0296 12.174C18.4136 11.53 18.1056 10.6387 18.1056 9.5C18.1056 8.352 18.4043 7.46067 19.0016 6.826C19.5989 6.182 20.4389 5.86 21.5216 5.86C22.5483 5.86 23.3463 6.17267 23.9156 6.798C24.4849 7.42333 24.7696 8.254 24.7696 9.29ZM21.5216 7.05C20.9803 7.05 20.5416 7.20867 20.2056 7.526C19.8789 7.84333 19.6736 8.30533 19.5896 8.912H23.3696C23.2949 8.324 23.0943 7.86667 22.7676 7.54C22.4503 7.21333 22.0349 7.05 21.5216 7.05ZM30.2584 5.86C30.585 5.86 30.8417 5.90667 31.0284 6L30.7904 7.372C30.5757 7.25067 30.2817 7.19 29.9084 7.19C29.6097 7.19 29.325 7.26933 29.0544 7.428C28.793 7.58667 28.5737 7.82467 28.3964 8.142C28.2284 8.45933 28.1444 8.842 28.1444 9.29V13H26.6464V6H27.9204L28.0464 7.26C28.4384 6.32667 29.1757 5.86 30.2584 5.86ZM33.418 3.242C33.7913 3.242 34.0807 3.382 34.286 3.662C34.5007 3.93267 34.608 4.28733 34.608 4.726C34.608 5.258 34.468 5.748 34.188 6.196C33.9173 6.63467 33.5067 6.98 32.956 7.232L32.228 6.63C32.6107 6.49 32.9327 6.294 33.194 6.042C33.4553 5.78067 33.628 5.496 33.712 5.188L33.656 5.146C33.5627 5.22067 33.4273 5.258 33.25 5.258C33.0167 5.258 32.8067 5.174 32.62 5.006C32.4427 4.838 32.354 4.6 32.354 4.292C32.354 3.99333 32.4567 3.746 32.662 3.55C32.8673 3.34467 33.1193 3.242 33.418 3.242ZM38.2858 13.14C37.5765 13.14 36.9465 13.0187 36.3958 12.776C35.8545 12.5333 35.4438 12.1647 35.1638 11.67L36.1718 10.802C36.3492 11.2033 36.6245 11.4973 36.9978 11.684C37.3712 11.8707 37.8192 11.964 38.3418 11.964C38.8178 11.964 39.1865 11.8893 39.4478 11.74C39.7092 11.5813 39.8398 11.376 39.8398 11.124C39.8398 10.9 39.7185 10.7227 39.4758 10.592C39.2332 10.452 38.8132 10.3213 38.2158 10.2C37.1798 10.004 36.4518 9.74267 36.0318 9.416C35.6118 9.08933 35.4018 8.62733 35.4018 8.03C35.4018 7.64733 35.5185 7.29267 35.7518 6.966C35.9852 6.63 36.3212 6.364 36.7598 6.168C37.2078 5.96267 37.7352 5.86 38.3418 5.86C39.1165 5.86 39.7372 5.99067 40.2038 6.252C40.6705 6.504 41.0298 6.90067 41.2818 7.442L40.2178 8.226C40.0498 7.81533 39.8118 7.51667 39.5038 7.33C39.2052 7.134 38.8225 7.036 38.3558 7.036C37.9358 7.036 37.5858 7.12467 37.3058 7.302C37.0352 7.47 36.8998 7.666 36.8998 7.89C36.8998 8.142 37.0212 8.34267 37.2638 8.492C37.5158 8.64133 37.9685 8.77667 38.6218 8.898C39.6112 9.07533 40.3112 9.32733 40.7218 9.654C41.1325 9.98067 41.3378 10.438 41.3378 11.026C41.3378 11.6513 41.0672 12.16 40.5258 12.552C39.9845 12.944 39.2378 13.14 38.2858 13.14ZM54.4569 5.048H51.2929V13H49.7949V5.048H46.6309V3.76H54.4569V5.048ZM56.5918 4.824C56.2745 4.824 56.0272 4.74467 55.8498 4.586C55.6725 4.418 55.5838 4.18467 55.5838 3.886C55.5838 3.58733 55.6725 3.35867 55.8498 3.2C56.0272 3.04133 56.2745 2.962 56.5918 2.962C56.9092 2.962 57.1518 3.04133 57.3198 3.2C57.4972 3.35867 57.5858 3.58733 57.5858 3.886C57.5858 4.18467 57.4972 4.418 57.3198 4.586C57.1518 4.74467 56.9092 4.824 56.5918 4.824ZM57.3338 13H55.8358V6H57.3338V13ZM65.9356 9.29C65.9356 9.56067 65.917 9.81733 65.8796 10.06H60.7556C60.8396 10.676 61.059 11.1473 61.4136 11.474C61.7683 11.7913 62.2256 11.95 62.7856 11.95C63.243 11.95 63.621 11.8707 63.9196 11.712C64.2276 11.544 64.4376 11.306 64.5496 10.998L65.7956 11.516C65.273 12.5987 64.2696 13.14 62.7856 13.14C61.6843 13.14 60.821 12.818 60.1956 12.174C59.5796 11.53 59.2716 10.6387 59.2716 9.5C59.2716 8.352 59.5703 7.46067 60.1676 6.826C60.765 6.182 61.605 5.86 62.6876 5.86C63.7143 5.86 64.5123 6.17267 65.0816 6.798C65.651 7.42333 65.9356 8.254 65.9356 9.29ZM62.6876 7.05C62.1463 7.05 61.7076 7.20867 61.3716 7.526C61.045 7.84333 60.8396 8.30533 60.7556 8.912H64.5356C64.461 8.324 64.2603 7.86667 63.9336 7.54C63.6163 7.21333 63.201 7.05 62.6876 7.05ZM71.4244 5.86C71.7511 5.86 72.0077 5.90667 72.1944 6L71.9564 7.372C71.7417 7.25067 71.4477 7.19 71.0744 7.19C70.7757 7.19 70.4911 7.26933 70.2204 7.428C69.9591 7.58667 69.7397 7.82467 69.5624 8.142C69.3944 8.45933 69.3104 8.842 69.3104 9.29V13H67.8124V6H69.0864L69.2124 7.26C69.6044 6.32667 70.3417 5.86 71.4244 5.86Z" fill="#545F7D"/>
<path fill-rule="evenodd" clip-rule="evenodd" d="M7.98572 27.2875C7.85197 27.2931 7.73572 27.3813 7.69447 27.5088L6.18759 32.18L1.28071 32.17C1.14196 32.17 1.01821 32.2593 0.975716 32.3912C0.932591 32.5237 0.980091 32.6681 1.09259 32.75L5.06891 35.6268L3.54203 40.293C3.49891 40.4249 3.54578 40.5699 3.65828 40.6511C3.77016 40.733 3.92265 40.733 4.03454 40.6511L7.9995 37.758L11.9657 40.6511C12.0776 40.733 12.2301 40.733 12.342 40.6511C12.4545 40.5699 12.5014 40.4249 12.4582 40.293L10.9314 35.6268L14.9077 32.75C15.0202 32.6681 15.0677 32.5237 15.0246 32.3912C14.9814 32.2593 14.8583 32.17 14.7196 32.1706L9.81269 32.1806L8.30393 27.5094V27.5088C8.25956 27.3719 8.12957 27.2819 7.98581 27.2875L7.98572 27.2875Z" fill="#E9B200"/>
<g clip-path="url(#clip0_5530_1558)">
<path fill-rule="evenodd" clip-rule="evenodd" d="M27.9844 26.96C27.8519 26.9669 27.7369 27.0544 27.6956 27.1806L26.0894 32H20.9451V32.0006C20.8069 32.0006 20.6844 32.0894 20.642 32.2206C20.5988 32.3519 20.6451 32.4956 20.7557 32.5781L24.9344 35.6338L23.3282 40.6213V40.6207C23.2851 40.7532 23.3326 40.8976 23.4451 40.9788C23.5576 41.0607 23.7094 41.0601 23.8213 40.9782L28 37.9225L32.1788 40.9782C32.2906 41.0601 32.4425 41.0607 32.555 40.9788C32.6675 40.8976 32.715 40.7532 32.6719 40.6207L31.0656 35.6332L35.2444 32.5775V32.5781C35.355 32.4956 35.4012 32.3518 35.3581 32.2206C35.3156 32.0894 35.1931 32.0006 35.055 32.0006H29.9107L28.3044 27.1812V27.1806C28.2601 27.0437 28.1288 26.9531 27.9844 26.96H27.9844ZM28 28.2937L29.3756 32.42V32.4206C29.4181 32.5519 29.5413 32.6412 29.68 32.6406H34.0738L30.4987 35.255V35.2556C30.3875 35.3369 30.3406 35.4806 30.3831 35.6125L31.7587 39.8807L28.1893 37.2712H28.1887C28.0762 37.1887 27.9237 37.1887 27.8112 37.2712L24.2417 39.8807L25.6174 35.6125H25.6167C25.6592 35.4806 25.6124 35.3369 25.5011 35.2556L21.9261 32.6412H26.3198V32.6406C26.4586 32.6412 26.5817 32.5519 26.6242 32.4206L27.9998 28.2944L28 28.2937Z" fill="#E9B200"/>
</g>
<g clip-path="url(#clip1_5530_1558)">
<path fill-rule="evenodd" clip-rule="evenodd" d="M47.9844 26.96C47.8519 26.9669 47.7369 27.0544 47.6956 27.1806L46.0894 32H40.9451V32.0006C40.8069 32.0006 40.6844 32.0894 40.642 32.2206C40.5988 32.3519 40.6451 32.4956 40.7557 32.5781L44.9344 35.6338L43.3282 40.6213V40.6207C43.2851 40.7532 43.3326 40.8976 43.4451 40.9788C43.5576 41.0607 43.7094 41.0601 43.8213 40.9782L48 37.9225L52.1788 40.9782C52.2906 41.0601 52.4425 41.0607 52.555 40.9788C52.6675 40.8976 52.715 40.7532 52.6719 40.6207L51.0656 35.6332L55.2444 32.5775V32.5781C55.355 32.4956 55.4012 32.3518 55.3581 32.2206C55.3156 32.0894 55.1931 32.0006 55.055 32.0006H49.9107L48.3044 27.1812V27.1806C48.2601 27.0437 48.1288 26.9531 47.9844 26.96H47.9844ZM48 28.2937L49.3756 32.42V32.4206C49.4181 32.5519 49.5413 32.6412 49.68 32.6406H54.0738L50.4987 35.255V35.2556C50.3875 35.3369 50.3406 35.4806 50.3831 35.6125L51.7587 39.8807L48.1893 37.2712H48.1887C48.0762 37.1887 47.9237 37.1887 47.8112 37.2712L44.2417 39.8807L45.6174 35.6125H45.6167C45.6592 35.4806 45.6124 35.3369 45.5011 35.2556L41.9261 32.6412H46.3198V32.6406C46.4586 32.6412 46.5817 32.5519 46.6242 32.4206L47.9998 28.2944L48 28.2937Z" fill="#E9B200"/>
</g>
<defs>
<clipPath id="clip0_5530_1558">
<rect width="16" height="16" fill="white" transform="translate(20 26)"/>
</clipPath>
<clipPath id="clip1_5530_1558">
<rect width="16" height="16" fill="white" transform="translate(40 26)"/>
</clipPath>
</defs>
</svg>
